<?xml version="1.0" standalone="no"?>
<!DOCTYPE svg PUBLIC "-//W3C//DTD SVG 20010904//EN"
 "http://www.w3.org/TR/2001/REC-SVG-20010904/DTD/svg10.dtd">
<svg version="1.0" xmlns="http://www.w3.org/2000/svg"
 width="400.000000pt" height="400.000000pt" viewBox="0 0 800.000000 600.000000"
 preserveAspectRatio="xMidYMid meet">
<metadata>
Created by potrace 1.16, written by Peter Selinger 2001-2019
</metadata>
<g transform="translate(0.000000,600.000000) scale(0.100000,-0.100000)"
fill="#000000" stroke="none">
<path d="M6082 5329 c-2 -591 -4 -678 -17 -683 -8 -3 -15 -16 -15 -29 0 -14 7
-30 15 -37 9 -8 15 -30 15 -56 0 -36 -3 -44 -19 -44 -10 0 -24 -6 -30 -14 -6
-7 -36 -16 -67 -18 -43 -4 -61 -11 -82 -32 l-27 -26 -3 -333 c-2 -221 0 -345
8 -370 14 -49 46 -69 102 -64 l43 4 -46 1 c-35 2 -51 8 -70 28 l-24 26 -3 326
c-4 361 0 392 48 417 33 17 116 20 125 5 8 -14 102 -13 111 1 4 7 27 10 62 7
45 -4 60 -10 79 -32 l23 -27 0 -348 c0 -405 3 -390 -91 -402 l-54 -6 48 -2
c41 -1 53 3 78 28 l29 29 0 352 c0 222 -4 358 -10 371 -16 28 -63 49 -113 49
-31 0 -47 5 -51 15 -3 8 -15 15 -26 15 -17 0 -20 6 -20 40 0 28 -6 45 -20 57
-39 33 -17 79 29 62 l26 -9 -22 17 -23 18 -3 670 -2 670 -3 -676z"/>
<path d="M3220 4310 l0 -640 445 0 445 0 0 640 0 640 -445 0 -445 0 0 -640z
m860 0 l0 -600 -410 0 -410 0 0 600 0 600 410 0 410 0 0 -600z"/>
<path d="M3613 4592 c-8 -5 -8 -11 1 -24 15 -21 47 -14 64 13 11 17 9 19 -20
19 -18 0 -38 -4 -45 -8z"/>
<path d="M3450 4445 l-23 -25 31 0 c36 0 50 16 30 36 -12 12 -17 11 -38 -11z"/>
<path d="M4370 4310 l0 -640 445 0 445 0 0 640 0 640 -445 0 -445 0 0 -640z
m858 3 l2 -603 -410 0 -410 0 0 605 0 605 408 -2 407 -3 3 -602z"/>
<path d="M4703 4535 c0 -44 2 -61 4 -37 2 23 2 59 0 80 -2 20 -4 1 -4 -43z"/>
<path d="M4870 4603 c0 -17 53 -144 58 -139 3 3 -7 37 -22 76 -25 64 -36 83
-36 63z"/>
<path d="M5021 4573 c12 -21 26 -56 29 -78 l7 -40 2 38 c1 37 -35 117 -52 117
-5 0 1 -17 14 -37z"/>
<path d="M4498 4563 c7 -12 25 -24 42 -28 16 -4 35 -14 40 -23 10 -15 10 -15
8 3 -2 12 -15 24 -34 30 -17 6 -39 17 -49 25 -17 14 -17 14 -7 -7z"/>
<path d="M4500 4255 c0 -43 4 -75 10 -75 6 0 10 32 10 75 0 43 -4 75 -10 75
-6 0 -10 -32 -10 -75z"/>
<path d="M4600 4255 c0 -43 4 -75 10 -75 6 0 10 32 10 75 0 43 -4 75 -10 75
-6 0 -10 -32 -10 -75z"/>
<path d="M4923 4266 c11 -36 24 -63 27 -61 8 5 -32 125 -42 125 -3 0 3 -29 15
-64z"/>
<path d="M5013 4255 c0 -44 2 -61 4 -37 2 23 2 59 0 80 -2 20 -4 1 -4 -43z"/>
<path d="M4690 4289 c-11 -20 -5 -75 8 -83 4 -2 7 20 7 50 0 30 -1 54 -2 54
-1 0 -7 -9 -13 -21z"/>
<path d="M4810 4255 c0 -36 3 -46 10 -35 5 8 10 24 10 35 0 11 -5 27 -10 35
-7 11 -10 1 -10 -35z"/>
<path d="M4500 3975 c0 -43 4 -75 10 -75 6 0 10 32 10 75 0 43 -4 75 -10 75
-6 0 -10 -32 -10 -75z"/>
<path d="M4595 3910 c-3 -5 -1 -10 4 -10 6 0 11 5 11 10 0 6 -2 10 -4 10 -3 0
-8 -4 -11 -10z"/>
<path d="M1486 4900 c-44 -14 -84 -58 -106 -117 -11 -30 -20 -58 -20 -63 0 -6
25 -26 55 -46 30 -21 53 -39 51 -41 -2 -3 -21 0 -43 6 -64 18 -63 19 -63 -69
0 -56 6 -96 21 -135 11 -30 21 -55 22 -55 1 0 27 7 57 15 30 8 56 12 58 10 3
-2 -17 -14 -42 -27 -33 -15 -46 -27 -42 -38 3 -8 19 -57 37 -107 18 -51 31
-95 28 -97 -3 -3 -25 2 -49 10 -56 20 -128 13 -176 -17 -35 -21 -56 -53 -68
-102 -6 -26 -3 -30 35 -45 23 -9 62 -26 88 -39 l46 -22 -82 6 c-92 6 -90 8
-72 -62 l11 -44 62 -5 c33 -4 78 -7 99 -9 20 -1 38 -6 40 -12 1 -6 -34 -11
-85 -13 -49 -1 -88 -5 -88 -8 0 -4 6 -32 14 -63 8 -31 17 -89 21 -128 4 -45
11 -73 19 -73 6 1 40 7 76 15 91 20 102 19 98 -6 -2 -16 -24 -30 -93 -59 l-90
-37 3 -48 c2 -52 25 -100 57 -121 17 -11 29 -8 88 21 37 18 67 30 67 26 0 -4
-13 -22 -30 -41 -16 -19 -29 -38 -30 -42 0 -5 27 -8 60 -8 l60 0 -2 32 c-3 31
-1 32 43 39 63 10 102 31 145 83 30 36 41 43 55 35 10 -5 49 -9 88 -9 70 0 71
0 111 43 56 58 87 128 95 212 4 39 12 79 18 90 5 11 42 53 80 93 l70 72 -44 1
c-34 0 -39 2 -24 9 11 5 37 11 58 15 32 5 41 12 54 43 13 32 13 95 -1 109 -3
3 -20 0 -38 -5 -32 -11 -32 -11 -10 5 12 8 22 19 22 23 0 17 -107 68 -155 75
l-50 6 0 -40 c0 -57 -12 -61 -50 -17 -33 39 -33 39 -59 23 -14 -10 -26 -20
-26 -23 0 -3 14 -17 30 -31 17 -14 29 -27 27 -29 -2 -2 -25 3 -51 12 -54 19
-56 17 -95 -48 l-22 -36 59 -36 c68 -41 139 -96 125 -96 -6 0 -35 11 -64 25
-30 13 -73 27 -96 31 -40 6 -42 5 -48 -22 -3 -16 -19 -69 -34 -119 -16 -49
-27 -92 -24 -95 2 -2 41 -7 86 -11 l82 -6 -86 -1 c-47 -1 -89 -6 -95 -11 -5
-6 -20 -12 -34 -15 -14 -3 -61 -17 -105 -31 -98 -31 -107 -31 -103 -3 2 15 38
49 106 101 60 46 102 85 102 95 0 18 -23 113 -35 143 -4 11 8 24 44 46 87 54
130 157 100 241 l-10 30 -71 -24 c-39 -13 -73 -22 -75 -20 -2 2 34 34 81 71
51 40 86 76 86 86 0 33 -22 274 -25 277 -2 2 -51 -28 -109 -67 -58 -39 -111
-71 -118 -71 -7 1 36 47 96 103 l108 102 -43 65 c-53 78 -113 118 -185 125
-27 2 -62 0 -78 -5z m-7 -882 c-50 -42 -59 -34 -14 12 24 25 41 36 44 28 2 -6
-11 -25 -30 -40z m531 -457 c0 -10 -6 -23 -12 -28 -14 -11 -177 -37 -184 -30
-3 3 -8 21 -11 41 l-6 36 107 0 c97 0 106 -2 106 -19z"/>
<path d="M2555 3540 c-45 -7 -95 -31 -114 -54 -7 -9 -17 -13 -22 -10 -5 3 -12
-3 -16 -13 -4 -10 -13 -23 -21 -29 -9 -6 -22 -29 -31 -51 -14 -35 -35 -53
-167 -142 -83 -55 -156 -101 -163 -101 -22 0 -30 -47 -20 -111 17 -104 15
-103 128 -95 126 8 322 46 328 63 3 7 2 29 -1 48 l-7 35 -62 0 c-55 1 -59 2
-39 13 20 11 20 14 7 28 -13 13 -14 21 -3 55 12 35 17 39 50 42 31 3 39 -1 51
-24 l14 -28 25 40 c14 21 36 48 48 59 l23 20 -7 -39 c-7 -37 -6 -38 16 -32 40
12 68 14 68 4 0 -5 12 -8 28 -6 22 2 33 14 55 58 l28 55 -6 -45 c-4 -25 -8
-50 -10 -57 -12 -38 72 -17 97 25 l17 27 1 -27 c0 -40 15 -41 33 -2 35 73 11
161 -61 226 -58 53 -175 82 -267 68z"/>
<path d="M6440 3238 c-1 -31 -1 -32 -15 -14 -19 25 -30 15 -16 -13 7 -12 17
-18 26 -15 15 6 19 -4 16 -38 -1 -10 2 -26 8 -35 9 -16 10 -16 11 4 0 12 5 25
10 28 16 10 12 -51 -5 -65 -8 -7 -15 -19 -15 -26 0 -8 -4 -14 -10 -14 -5 0
-10 4 -10 10 0 5 -32 8 -75 6 -57 -3 -78 0 -92 13 -23 21 -55 16 -87 -14 -35
-32 -26 -55 20 -48 22 4 34 2 34 -6 0 -6 -13 -11 -29 -11 l-29 0 21 -40 c12
-22 29 -40 38 -40 20 0 32 49 17 68 -15 18 -2 27 17 12 8 -7 15 -28 15 -46 0
-25 4 -34 16 -34 17 0 16 33 -1 73 -4 10 -3 17 3 17 6 0 16 -16 22 -35 12 -36
30 -47 30 -18 0 9 -9 27 -21 39 -12 13 -16 24 -11 28 6 3 21 -7 35 -23 14 -17
28 -27 31 -24 14 14 4 33 -24 50 -30 17 -39 33 -20 33 6 0 29 -12 52 -27 48
-30 108 -47 108 -30 0 6 11 0 24 -12 l25 -23 20 33 c12 19 21 36 21 39 0 3
-13 20 -30 38 -29 32 -39 62 -22 62 5 0 17 -9 27 -20 22 -24 31 -25 39 -3 4
10 1 20 -9 25 -8 5 -15 14 -15 19 0 6 5 7 10 4 18 -11 10 25 -10 45 -20 20
-46 28 -36 11 3 -5 -10 -11 -29 -13 -24 -3 -36 1 -40 11 -6 15 10 30 35 32 20
1 -29 17 -57 18 -19 1 -23 -4 -23 -31z m145 -48 c3 -6 -5 -10 -19 -10 -14 0
-28 5 -31 10 -3 6 5 10 19 10 14 0 28 -4 31 -10z m-55 -56 c0 -8 -4 -12 -10
-9 -5 3 -10 10 -10 16 0 5 5 9 10 9 6 0 10 -7 10 -16z m-20 -48 c0 -3 -4 -8
-10 -11 -5 -3 -10 -1 -10 4 0 6 5 11 10 11 6 0 10 -2 10 -4z m-250 -21 c16
-19 5 -32 -14 -16 -8 6 -18 11 -22 10 -21 -3 -28 2 -14 11 21 14 36 12 50 -5z
m285 -15 c-3 -5 -11 -10 -16 -10 -6 0 -7 5 -4 10 3 6 11 10 16 10 6 0 7 -4 4
-10z m-240 -28 c-3 -3 -11 0 -18 7 -9 10 -8 11 6 5 10 -3 15 -9 12 -12z m270
8 c3 -6 -4 -10 -17 -10 -18 0 -20 2 -8 10 19 12 18 12 25 0z"/>
<path d="M2567 3165 c-8 -18 11 -31 25 -17 11 11 3 32 -12 32 -4 0 -10 -7 -13
-15z"/>
<path d="M2775 3160 c-3 -6 1 -13 10 -16 19 -8 30 0 20 15 -8 14 -22 14 -30 1z"/>
<path d="M2849 3067 c-9 -6 -26 -31 -37 -54 -26 -50 -62 -79 -113 -93 -28 -8
-43 -20 -55 -42 -14 -28 -14 -34 1 -74 9 -24 22 -44 29 -44 6 0 30 -19 53 -42
43 -45 62 -94 67 -172 1 -22 6 -52 10 -66 6 -23 1 -30 -48 -64 -75 -51 -133
-116 -163 -183 -22 -48 -25 -65 -20 -127 2 -39 8 -79 12 -88 10 -25 -10 -23
-36 3 -17 17 -20 30 -17 101 3 89 -10 111 -36 60 -45 -88 -40 -170 15 -216 16
-14 29 -27 29 -30 0 -3 -29 -6 -65 -6 -36 0 -65 -3 -65 -6 0 -16 172 -293 211
-337 4 -5 48 10 99 34 l92 43 18 -24 c10 -13 25 -36 34 -51 l16 -27 -99 -51
-98 -51 9 -52 c5 -29 12 -55 15 -58 2 -3 471 -5 1041 -5 l1037 0 5 135 c6 131
6 128 8 -70 1 -113 5 -216 7 -230 3 -14 3 -20 0 -14 -7 14 -94 -1 -152 -26
-50 -22 -66 -59 -39 -89 40 -45 210 -97 391 -122 85 -11 277 -10 296 2 9 5
-34 9 -107 9 -132 0 -187 7 -178 22 4 6 -1 8 -13 4 -11 -3 -28 1 -39 9 -18 15
-18 15 0 8 14 -5 17 -3 12 6 -5 7 11 3 34 -9 23 -12 48 -19 56 -16 8 3 13 2
10 -2 -2 -4 17 -8 42 -9 l46 -2 -39 19 c-22 10 -49 25 -60 34 -20 17 -19 17 5
10 l25 -7 -20 24 -20 24 22 -19 c13 -10 20 -24 16 -30 -4 -6 -1 -6 8 1 13 11
20 9 38 -11 24 -26 71 -40 71 -22 0 6 5 3 11 -6 11 -20 64 -25 74 -8 4 6 11 8
16 4 5 -3 17 0 26 8 9 7 18 12 20 11 1 -2 4 -3 6 -2 1 0 10 2 20 4 10 2 27 11
36 19 16 15 18 14 16 -6 -1 -15 -8 -22 -18 -22 -9 1 -15 -2 -12 -6 3 -5 -3
-11 -12 -13 -16 -4 32 -1 107 7 41 4 104 42 144 86 53 59 77 121 83 215 l6 80
41 -3 41 -4 -3 -87 c-4 -95 7 -121 51 -121 45 0 52 14 57 116 l5 97 109 -2
c60 -1 155 1 212 5 l104 7 1 96 2 96 24 -195 c21 -166 27 -198 45 -212 25 -22
30 -22 58 0 l23 19 -40 329 c-34 277 -39 342 -32 414 4 47 11 114 14 150 l6
65 -423 1 c-372 2 -601 12 -675 31 -22 5 -23 10 -23 100 l0 96 38 -6 c20 -3
70 -9 110 -13 63 -6 72 -4 72 10 0 9 -7 16 -15 16 -8 0 -15 9 -15 20 0 11 5
20 10 20 6 0 10 16 10 36 l0 35 263 -1 c144 -1 268 -1 276 -1 12 1 13 46 7
299 -5 262 -8 298 -23 310 -23 17 -1303 18 -1321 0 -8 -8 -15 -8 -25 1 -11 8
-178 10 -668 8 -360 -2 -658 -4 -664 -4 -5 0 -125 1 -265 3 -192 3 -259 1
-271 -9z m953 -289 c21 -18 137 -177 236 -325 l81 -121 143 -99 c78 -54 147
-101 154 -106 22 -13 183 -57 210 -57 14 0 48 12 74 27 27 15 52 24 56 21 11
-12 -5 -74 -29 -109 -26 -39 -65 -53 -216 -75 l-104 -16 -17 23 c-15 19 -26
22 -72 20 -30 -1 -70 -6 -89 -11 -29 -9 -36 -8 -51 11 -10 12 -18 31 -18 43 0
26 -46 99 -87 138 -18 17 -56 34 -110 48 l-82 22 -43 -29 c-55 -38 -176 -94
-182 -85 -2 4 -23 70 -45 147 -23 77 -47 152 -53 168 -11 29 -35 36 -44 12
-10 -25 -20 -18 -69 46 -55 72 -60 60 82 179 143 119 233 161 275 128z m-758
-164 c13 -33 5 -55 -24 -72 -16 -9 -30 -21 -30 -25 0 -5 6 -5 13 -1 9 5 9 4 1
-5 -16 -18 -52 5 -52 33 0 12 -2 30 -4 41 -4 28 30 32 48 6 9 -12 22 -21 30
-21 17 0 17 1 4 34 -5 14 -6 26 -1 26 5 0 12 -7 15 -16z m-110 -50 c10 -38 0
-41 -12 -5 -6 17 -7 31 -3 31 5 0 12 -12 15 -26z m-42 -18 c29 -36 27 -46 -5
-46 -41 0 -77 60 -44 73 20 9 21 8 49 -27z m161 -20 c4 -10 1 -13 -8 -9 -8 3
-12 9 -9 14 7 12 11 11 17 -5z m-123 -54 c0 -13 -12 -22 -22 -16 -10 6 -1 24
13 24 5 0 9 -4 9 -8z m94 -90 c12 -11 46 -24 77 -31 67 -14 63 -3 68 -196 2
-77 4 -141 4 -141 1 -1 115 9 252 21 230 20 266 22 254 11 -2 -2 -98 -11 -214
-20 -313 -24 -295 -21 -295 -62 l0 -34 -60 0 -61 0 6 33 c5 24 1 39 -13 57
-15 19 -18 30 -11 49 8 20 2 37 -31 95 -37 64 -60 135 -60 187 0 10 12 25 28
33 34 19 32 19 56 -2z m665 -356 c-7 -7 -477 -48 -497 -43 -9 2 17 7 58 11
357 35 449 42 439 32z m1817 -156 c135 -9 224 -26 224 -41 0 -31 -177 -49
-470 -49 -295 0 -470 18 -470 49 0 37 425 61 716 41z m-606 -103 c0 -2 -17
-19 -37 -38 l-38 -34 34 38 c33 34 41 42 41 34z m70 -10 c0 -2 -12 -14 -27
-28 l-28 -24 24 28 c23 25 31 32 31 24z m50 0 c0 -2 -12 -14 -27 -28 l-28 -24
24 28 c23 25 31 32 31 24z m50 0 c0 -2 -12 -14 -27 -28 l-28 -24 24 28 c23 25
31 32 31 24z m371 -24 l24 -28 -26 23 c-14 12 -29 19 -34 15 -4 -5 -5 -2 -1 5
9 16 9 16 37 -15z m45 -5 l29 -33 -32 29 c-18 17 -33 31 -33 33 0 8 8 1 36
-29z m100 0 l29 -33 -32 29 c-31 28 -38 36 -30 36 2 0 16 -15 33 -32z m39 12
c10 -11 16 -20 13 -20 -3 0 -13 9 -23 20 -10 11 -16 20 -13 20 3 0 13 -9 23
-20z m-525 6 c0 -2 -8 -10 -17 -17 -16 -13 -17 -12 -4 4 13 16 21 21 21 13z
m107 -569 c-1 -105 -2 -19 -2 193 0 212 1 298 2 192 2 -105 2 -279 0 -385z
m110 -4 c-1 -109 -2 -22 -2 192 0 215 1 304 2 198 2 -105 2 -281 0 -390z m60
19 c-1 -97 -2 -15 -2 183 0 198 1 278 2 177 2 -101 2 -263 0 -360z m174 521
c13 -16 12 -17 -3 -4 -10 7 -18 15 -18 17 0 8 8 3 21 -13z m-683 -30 c-27 -47
-28 -49 -28 -37 0 11 38 74 45 74 2 0 -5 -17 -17 -37z m279 -475 c-1 -95 -3
-18 -3 172 0 190 2 267 3 173 2 -95 2 -251 0 -345z m-239 467 c-6 -14 -13 -23
-15 -21 -5 5 15 46 22 46 3 0 -1 -11 -7 -25z m179 -447 c-1 -84 -3 -16 -3 152
0 168 2 236 3 153 2 -84 2 -222 0 -305z m633 417 c0 -5 -5 -3 -10 5 -5 8 -10
20 -10 25 0 6 5 3 10 -5 5 -8 10 -19 10 -25z m-683 -17 c-3 -8 -6 -5 -6 6 -1
11 2 17 5 13 3 -3 4 -12 1 -19z m-200 -20 c-3 -8 -6 -5 -6 6 -1 11 2 17 5 13
3 -3 4 -12 1 -19z m890 0 c-3 -8 -6 -5 -6 6 -1 11 2 17 5 13 3 -3 4 -12 1 -19z
m-230 -350 c-1 -68 -3 -13 -3 122 0 135 2 190 3 123 2 -68 2 -178 0 -245z
m100 325 c-3 -10 -5 -4 -5 12 0 17 2 24 5 18 2 -7 2 -21 0 -30z m-50 -305 c-1
-62 -3 -12 -3 112 0 124 2 174 3 113 2 -62 2 -164 0 -225z m100 30 c-1 -57 -3
-11 -3 102 0 113 2 159 3 103 2 -57 2 -149 0 -205z m-720 15 c-1 -54 -3 -12
-3 92 0 105 2 149 3 98 2 -51 2 -136 0 -190z m-50 -5 c-1 -51 -3 -10 -3 92 0
102 2 143 3 93 2 -51 2 -135 0 -185z m100 -26 c-1 -53 -3 -7 -3 103 0 110 2
154 3 97 2 -57 2 -147 0 -200z m50 -19 c-1 -60 -3 -11 -3 107 0 118 2 167 3
108 2 -60 2 -156 0 -215z m670 50 c-1 -49 -3 -9 -3 87 0 96 2 136 3 88 2 -49
2 -127 0 -175z m-100 -110 c-3 -10 -5 -2 -5 17 0 19 2 27 5 18 2 -10 2 -26 0
-35z m-760 -15 c-3 -8 -6 -5 -6 6 -1 11 2 17 5 13 3 -3 4 -12 1 -19z m23 -63
c0 -5 -5 -3 -10 5 -5 8 -10 20 -10 25 0 6 5 3 10 -5 5 -8 10 -19 10 -25z m50
-10 c0 -5 -5 -3 -10 5 -5 8 -10 20 -10 25 0 6 5 3 10 -5 5 -8 10 -19 10 -25z
m-72 -17 c12 -21 19 -38 17 -38 -7 0 -45 63 -45 74 0 12 1 10 28 -36z m832 24
c0 -5 -7 -17 -15 -28 -14 -18 -14 -17 -4 9 12 27 19 34 19 19z m-109 -25 c-10
-9 -11 -8 -5 6 3 10 9 15 12 12 3 -3 0 -11 -7 -18z m-131 -54 c-11 -17 -11
-17 -6 0 3 10 6 24 7 30 0 9 2 9 5 0 3 -7 0 -20 -6 -30z m41 14 c-10 -9 -11
-8 -5 6 3 10 9 15 12 12 3 -3 0 -11 -7 -18z m-520 -4 c13 -16 12 -17 -3 -4
-10 7 -18 15 -18 17 0 8 8 3 21 -13z m689 14 c0 -2 -19 -21 -42 -42 l-43 -40
40 43 c36 39 45 47 45 39z m-710 -42 c19 -19 32 -35 29 -35 -3 0 -20 16 -39
35 -19 19 -32 35 -29 35 3 0 20 -16 39 -35z m111 18 c13 -16 12 -17 -3 -4 -10
7 -18 15 -18 17 0 8 8 3 21 -13z m-151 -18 c13 -14 21 -25 18 -25 -2 0 -15 11
-28 25 -13 14 -21 25 -18 25 2 0 15 -11 28 -25z m640 22 c0 -2 -12 -14 -27
-28 l-28 -24 24 28 c23 25 31 32 31 24z m40 -10 c0 -2 -10 -12 -22 -23 l-23
-19 19 23 c18 21 26 27 26 19z m-99 -20 c-6 -8 -8 -16 -5 -19 3 -3 1 -9 -4
-12 -6 -3 -9 0 -8 6 2 16 15 38 23 38 3 0 0 -6 -6 -13z m-466 -17 c10 -11 16
-20 13 -20 -3 0 -13 9 -23 20 -10 11 -16 20 -13 20 3 0 13 -9 23 -20z m415 16
c0 -2 -8 -10 -17 -17 -16 -13 -17 -12 -4 4 13 16 21 21 21 13z"/>
<path d="M3729 2494 c-6 -8 -9 -17 -6 -20 8 -8 47 5 47 16 0 15 -29 19 -41 4z"/>
<path d="M1881 3054 c0 -11 3 -14 6 -6 3 7 2 16 -1 19 -3 4 -6 -2 -5 -13z"/>
<path d="M1865 3000 c-4 -17 -5 -34 -2 -36 2 -3 7 10 11 27 8 42 0 50 -9 9z"/>
<path d="M1732 2960 c0 -19 2 -27 5 -17 2 9 2 25 0 35 -3 9 -5 1 -5 -18z"/>
<path d="M871 2953 c-35 -17 -73 -68 -69 -92 2 -7 26 -22 53 -33 91 -35 139
-60 221 -113 80 -53 206 -176 254 -248 14 -20 27 -37 30 -37 3 0 20 12 38 28
31 26 82 132 63 132 -5 0 -28 -7 -51 -15 -68 -24 -69 -18 -2 27 69 45 68 43
30 124 -10 23 -32 54 -48 69 l-29 28 -10 -24 c-5 -13 -28 -64 -51 -114 -38
-84 -42 -89 -56 -71 -8 11 -14 26 -14 33 0 11 30 128 56 214 5 18 -65 60 -128
77 l-36 10 -12 -47 c-13 -52 -48 -136 -54 -130 -3 2 1 46 8 97 11 77 11 95 0
99 -20 8 -32 -4 -64 -65 l-30 -57 6 63 6 62 -39 0 c-21 0 -53 -8 -72 -17z"/>
<path d="M1840 2895 c-6 -31 -10 -59 -7 -61 2 -2 9 21 16 52 6 32 9 59 7 61
-2 3 -10 -21 -16 -52z"/>
<path d="M1744 2805 c0 -55 1 -76 3 -47 2 29 2 74 0 100 -2 26 -3 2 -3 -53z"/>
<path d="M6383 2883 c0 -9 4 -10 14 -2 7 6 13 12 13 14 0 1 -6 2 -13 2 -8 0
-14 -6 -14 -14z"/>
<path d="M6427 2874 c-25 -21 -25 -23 -8 -38 16 -15 20 -15 31 -1 10 12 9 16
-4 21 -13 5 -14 9 -5 20 14 17 30 9 23 -10 -3 -8 0 -17 6 -21 8 -5 7 -11 -2
-22 -11 -13 -6 -21 32 -54 l45 -39 5 37 c5 38 5 38 19 14 10 -19 15 -21 22
-10 15 24 10 48 -13 60 -23 12 -23 12 -4 -10 25 -28 12 -27 -39 4 -38 22 -60
48 -57 66 2 13 -27 4 -51 -17z m93 -90 c0 -8 -4 -14 -10 -14 -5 0 -10 9 -10
21 0 11 5 17 10 14 6 -3 10 -13 10 -21z"/>
<path d="M1642 2835 c0 -16 2 -22 5 -12 2 9 2 23 0 30 -3 6 -5 -1 -5 -18z"/>
<path d="M1822 2800 c0 -14 2 -19 5 -12 2 6 2 18 0 25 -3 6 -5 1 -5 -13z"/>
<path d="M1652 2770 c0 -19 2 -27 5 -17 2 9 2 25 0 35 -3 9 -5 1 -5 -18z"/>
<path d="M1812 2750 c0 -14 2 -19 5 -12 2 6 2 18 0 25 -3 6 -5 1 -5 -13z"/>
<path d="M1663 2690 c0 -25 2 -35 4 -22 2 12 2 32 0 45 -2 12 -4 2 -4 -23z"/>
<path d="M1802 2700 c0 -14 2 -19 5 -12 2 6 2 18 0 25 -3 6 -5 1 -5 -13z"/>
<path d="M1752 2555 c-1 -82 -4 -168 -7 -190 -4 -32 -3 -35 4 -15 7 19 9 10
10 -42 1 -66 -12 -95 -30 -67 -7 11 -9 9 -10 -6 -1 -11 -5 0 -9 25 -7 44 -7
45 -8 8 -1 -20 -4 -42 -7 -50 -4 -11 16 -14 105 -13 l111 0 -7 30 c-9 45 -13
47 -51 40 l-35 -6 5 43 c6 42 6 42 -7 -7 -7 -30 -18 -51 -28 -53 -12 -2 -16
13 -21 89 -3 50 -1 116 4 146 6 30 8 60 5 66 -2 7 -6 1 -7 -13 -2 -14 -6 18
-9 70 -6 91 -6 88 -8 -55z"/>
<path d="M1792 2650 c0 -14 2 -19 5 -12 2 6 2 18 0 25 -3 6 -5 1 -5 -13z"/>
<path d="M1672 2600 c0 -19 2 -27 5 -17 2 9 2 25 0 35 -3 9 -5 1 -5 -18z"/>
<path d="M1782 2590 c0 -14 2 -19 5 -12 2 6 2 18 0 25 -3 6 -5 1 -5 -13z"/>
<path d="M1683 2490 c0 -30 2 -43 4 -27 2 15 2 39 0 55 -2 15 -4 2 -4 -28z"/>
<path d="M1481 2390 c10 -46 98 -311 124 -374 10 -24 22 -36 35 -36 16 0 18 5
13 38 -17 122 -92 306 -158 388 l-24 29 10 -45z"/>
<path d="M1693 2375 c0 -33 2 -45 4 -27 2 18 2 45 0 60 -2 15 -4 0 -4 -33z"/>
<path d="M6237 2400 c5 -18 0 -20 -37 -20 -42 0 -42 0 -36 -31 3 -17 6 -38 6
-45 0 -11 17 -14 70 -14 39 0 70 3 70 6 0 3 -9 17 -20 31 -11 14 -20 41 -20
59 0 27 -4 34 -19 34 -14 0 -18 -5 -14 -20z"/>
<path d="M6355 2359 c-5 -39 -4 -54 6 -60 17 -11 59 -12 59 -1 0 13 -45 112
-52 112 -3 0 -9 -23 -13 -51z"/>
<path d="M1831 2374 c0 -11 3 -14 6 -6 3 7 2 16 -1 19 -3 4 -6 -2 -5 -13z"/>
<path d="M6455 2341 c-4 -18 -5 -34 -3 -35 4 -3 293 22 348 30 l45 7 -35 8
c-19 5 -105 11 -191 15 l-157 7 -7 -32z"/>
<path d="M1732 2290 c0 -19 2 -27 5 -17 2 9 2 25 0 35 -3 9 -5 1 -5 -18z"/>
<path d="M1664 2148 c3 -18 15 -152 26 -298 24 -303 25 -310 45 -310 12 0 15
-18 15 -95 l0 -95 240 -2 c470 -5 482 -5 493 13 7 12 3 31 -18 75 -18 39 -31
85 -36 136 -4 42 -12 85 -18 96 -6 11 -55 64 -110 119 -93 94 -103 107 -165
233 l-65 134 -46 -3 c-29 -2 -55 3 -70 13 -19 13 -53 16 -160 16 l-136 0 5
-32z"/>
<path d="M1417 2094 c91 -105 109 -118 156 -115 17 1 16 4 -5 30 -13 17 -26
30 -30 30 -4 1 -30 18 -57 39 -27 20 -65 46 -83 56 -31 19 -29 16 19 -40z"/>
<path d="M6609 2120 l-46 -5 74 -465 c40 -256 78 -475 83 -488 8 -18 17 -23
42 -20 17 2 36 10 41 20 8 12 -9 142 -63 485 -40 257 -76 470 -79 473 -3 3
-27 3 -52 0z"/>
<path d="M2621 1366 c-12 -14 -5 -26 16 -26 15 0 18 26 4 34 -5 3 -14 0 -20
-8z"/>
<path d="M5110 1006 c0 -2 8 -10 18 -17 15 -13 16 -12 3 4 -13 16 -21 21 -21
13z"/>
</g>
</svg>
